STARTFONT 2.1
FONT -Monotype-Bembo-Regular-I-Normal--12-120-72-72-P-59-iso8859-1
SIZE 12 72 72
FONTBOUNDINGBOX 17 15 -3 -3

STARTPROPERTIES 22
FOUNDRY "Monotype"
FAMILY_NAME "Bembo"
WEIGHT_NAME "Regular"
SLANT "I"
SETWIDTH_NAME "Normal"
ADD_STYLE_NAME ""
PIXEL_SIZE 12
POINT_SIZE 120
RESOLUTION_X 72
RESOLUTION_Y 72
SPACING "P"
AVERAGE_WIDTH 59
CHARSET_REGISTRY "iso8859"
CHARSET_ENCODING "1"
COPYRIGHT "Copyright (c) 1996 Monotype Typography Ltd."
CAP_HEIGHT 9
X_HEIGHT 6
WEIGHT 10
QUAD_WIDTH 7
DEFAULT_CHAR 32
FONT_DESCENT 3
FONT_ASCENT 12
ENDPROPERTIES

CHARS 191

STARTCHAR space
ENCODING 32
SWIDTH 278 0
DWIDTH 4 0
BBX 0 0 0 0
BITMAP
ENDCHAR

STARTCHAR exclam
ENCODING 33
SWIDTH 292 0
DWIDTH 4 0
BBX 3 8 1 0
BITMAP
20
20
20
40
40
40
00
80
ENDCHAR

STARTCHAR quotedbl
ENCODING 34
SWIDTH 417 0
DWIDTH 5 0
BBX 3 3 2 5
BITMAP
A0
A0
A0
ENDCHAR

STARTCHAR numbersign
ENCODING 35
SWIDTH 668 0
DWIDTH 9 0
BBX 8 8 1 0
BITMAP
12
12
7F
24
24
FE
48
48
ENDCHAR

STARTCHAR dollar
ENCODING 36
SWIDTH 459 0
DWIDTH 6 0
BBX 5 10 1 -1
BITMAP
10
38
48
40
20
10
10
90
E0
40
ENDCHAR

STARTCHAR percent
ENCODING 37
SWIDTH 823 0
DWIDTH 11 0
BBX 10 8 1 0
BITMAP
2080
5100
9200
A480
4940
1240
2280
4100
ENDCHAR

STARTCHAR ampersand
ENCODING 38
SWIDTH 708 0
DWIDTH 9 0
BBX 9 8 1 0
BITMAP
1800
2400
4000
3080
4700
8900
8200
7C00
ENDCHAR

STARTCHAR quoteright
ENCODING 39
SWIDTH 292 0
DWIDTH 4 0
BBX 2 3 2 5
BITMAP
40
40
80
ENDCHAR

STARTCHAR parenleft
ENCODING 40
SWIDTH 281 0
DWIDTH 4 0
BBX 4 11 1 -3
BITMAP
10
20
20
40
40
80
80
80
80
40
40
ENDCHAR

STARTCHAR parenright
ENCODING 41
SWIDTH 281 0
DWIDTH 4 0
BBX 4 11 -1 -3
BITMAP
20
20
10
10
10
10
20
20
40
40
80
ENDCHAR

STARTCHAR asterisk
ENCODING 42
SWIDTH 500 0
DWIDTH 7 0
BBX 6 6 1 3
BITMAP
10
10
DC
30
48
48
ENDCHAR

STARTCHAR plus
ENCODING 43
SWIDTH 667 0
DWIDTH 9 0
BBX 7 7 2 1
BITMAP
10
10
10
FE
10
10
10
ENDCHAR

STARTCHAR comma
ENCODING 44
SWIDTH 292 0
DWIDTH 4 0
BBX 2 3 0 -2
BITMAP
40
40
80
ENDCHAR

STARTCHAR minus
ENCODING 45
SWIDTH 667 0
DWIDTH 9 0
BBX 7 1 2 4
BITMAP
FE
ENDCHAR

STARTCHAR period
ENCODING 46
SWIDTH 292 0
DWIDTH 4 0
BBX 1 1 1 0
BITMAP
80
ENDCHAR

STARTCHAR slash
ENCODING 47
SWIDTH 458 0
DWIDTH 6 0
BBX 4 9 2 -1
BITMAP
10
10
20
20
40
40
40
80
80
ENDCHAR

STARTCHAR zero
ENCODING 48
SWIDTH 510 0
DWIDTH 7 0
BBX 5 8 1 0
BITMAP
30
48
48
88
88
90
90
60
ENDCHAR

STARTCHAR one
ENCODING 49
SWIDTH 510 0
DWIDTH 7 0
BBX 4 8 2 0
BITMAP
30
50
20
20
20
40
40
E0
ENDCHAR

STARTCHAR two
ENCODING 50
SWIDTH 510 0
DWIDTH 7 0
BBX 7 8 0 0
BITMAP
1C
22
04
08
10
20
48
F8
ENDCHAR

STARTCHAR three
ENCODING 51
SWIDTH 510 0
DWIDTH 7 0
BBX 6 8 1 0
BITMAP
18
24
08
18
28
08
90
60
ENDCHAR

STARTCHAR four
ENCODING 52
SWIDTH 510 0
DWIDTH 7 0
BBX 6 8 1 0
BITMAP
04
0C
14
28
48
FC
10
10
ENDCHAR

STARTCHAR five
ENCODING 53
SWIDTH 510 0
DWIDTH 7 0
BBX 6 8 1 0
BITMAP
1C
10
20
30
08
08
90
60
ENDCHAR

STARTCHAR six
ENCODING 54
SWIDTH 510 0
DWIDTH 7 0
BBX 6 8 1 0
BITMAP
0C
30
40
70
88
88
90
60
ENDCHAR

STARTCHAR seven
ENCODING 55
SWIDTH 510 0
DWIDTH 7 0
BBX 5 8 2 0
BITMAP
F8
88
10
10
20
20
40
40
ENDCHAR

STARTCHAR eight
ENCODING 56
SWIDTH 510 0
DWIDTH 7 0
BBX 6 8 1 0
BITMAP
18
24
48
30
48
88
90
60
ENDCHAR

STARTCHAR nine
ENCODING 57
SWIDTH 510 0
DWIDTH 7 0
BBX 6 8 1 0
BITMAP
18
24
44
44
38
08
30
C0
ENDCHAR

STARTCHAR colon
ENCODING 58
SWIDTH 292 0
DWIDTH 4 0
BBX 2 5 1 0
BITMAP
40
00
00
00
80
ENDCHAR

STARTCHAR semicolon
ENCODING 59
SWIDTH 292 0
DWIDTH 4 0
BBX 3 7 0 -2
BITMAP
20
00
00
00
40
40
80
ENDCHAR

STARTCHAR less
ENCODING 60
SWIDTH 667 0
DWIDTH 9 0
BBX 7 5 1 1
BITMAP
06
38
C0
38
06
ENDCHAR

STARTCHAR equal
ENCODING 61
SWIDTH 667 0
DWIDTH 9 0
BBX 7 3 2 2
BITMAP
FE
00
FE
ENDCHAR

STARTCHAR greater
ENCODING 62
SWIDTH 667 0
DWIDTH 9 0
BBX 7 5 2 1
BITMAP
C0
38
06
38
C0
ENDCHAR

STARTCHAR question
ENCODING 63
SWIDTH 396 0
DWIDTH 5 0
BBX 4 8 1 0
BITMAP
60
10
10
20
40
40
00
80
ENDCHAR

STARTCHAR at
ENCODING 64
SWIDTH 917 0
DWIDTH 12 0
BBX 11 12 1 -3
BITMAP
0780
1840
2020
46A0
4920
8920
9120
9240
5D80
4000
30C0
0F00
ENDCHAR

STARTCHAR A
ENCODING 65
SWIDTH 698 0
DWIDTH 9 0
BBX 9 8 0 0
BITMAP
0100
0300
0500
0900
1F00
2100
4100
E380
ENDCHAR

STARTCHAR B
ENCODING 66
SWIDTH 615 0
DWIDTH 8 0
BBX 8 8 0 0
BITMAP
3E
11
22
3C
22
42
44
F8
ENDCHAR

STARTCHAR C
ENCODING 67
SWIDTH 729 0
DWIDTH 9 0
BBX 8 8 1 0
BITMAP
1F
21
40
80
80
80
42
3E
ENDCHAR

STARTCHAR D
ENCODING 68
SWIDTH 760 0
DWIDTH 10 0
BBX 10 8 0 0
BITMAP
3F00
1080
2040
2040
2040
4080
4100
FE00
ENDCHAR

STARTCHAR E
ENCODING 69
SWIDTH 625 0
DWIDTH 8 0
BBX 8 8 0 0
BITMAP
3F
11
24
3C
24
40
42
FE
ENDCHAR

STARTCHAR F
ENCODING 70
SWIDTH 563 0
DWIDTH 7 0
BBX 8 8 0 0
BITMAP
3F
11
24
3C
24
40
40
F0
ENDCHAR

STARTCHAR G
ENCODING 71
SWIDTH 781 0
DWIDTH 10 0
BBX 8 8 1 0
BITMAP
1F
21
40
80
87
82
42
3C
ENDCHAR

STARTCHAR H
ENCODING 72
SWIDTH 760 0
DWIDTH 10 0
BBX 11 8 0 0
BITMAP
38E0
1040
2080
3F80
2080
4100
4100
E380
ENDCHAR

STARTCHAR I
ENCODING 73
SWIDTH 323 0
DWIDTH 4 0
BBX 5 8 0 0
BITMAP
38
10
20
20
20
40
40
E0
ENDCHAR

STARTCHAR J
ENCODING 74
SWIDTH 302 0
DWIDTH 4 0
BBX 7 11 -2 -3
BITMAP
0E
04
08
08
08
08
10
10
10
20
C0
ENDCHAR

STARTCHAR K
ENCODING 75
SWIDTH 708 0
DWIDTH 9 0
BBX 9 8 0 0
BITMAP
3980
1200
2400
3800
2800
4400
4400
F300
ENDCHAR

STARTCHAR L
ENCODING 76
SWIDTH 583 0
DWIDTH 8 0
BBX 7 8 0 0
BITMAP
38
10
20
20
20
40
42
FE
ENDCHAR

STARTCHAR M
ENCODING 77
SWIDTH 854 0
DWIDTH 11 0
BBX 12 8 0 0
BITMAP
3870
18A0
2940
2940
2A40
4A80
4480
E5C0
ENDCHAR

STARTCHAR N
ENCODING 78
SWIDTH 771 0
DWIDTH 10 0
BBX 11 8 0 0
BITMAP
30E0
1040
2880
2480
2480
4300
4100
E100
ENDCHAR

STARTCHAR O
ENCODING 79
SWIDTH 792 0
DWIDTH 10 0
BBX 9 8 1 0
BITMAP
1E00
2100
4080
8080
8080
8100
4200
3C00
ENDCHAR

STARTCHAR P
ENCODING 80
SWIDTH 563 0
DWIDTH 7 0
BBX 8 8 0 0
BITMAP
3E
11
21
22
2C
40
40
E0
ENDCHAR

STARTCHAR Q
ENCODING 81
SWIDTH 792 0
DWIDTH 10 0
BBX 9 11 1 -3
BITMAP
1E00
2100
4080
8080
8080
8100
4200
3C00
0800
0400
0380
ENDCHAR

STARTCHAR R
ENCODING 82
SWIDTH 698 0
DWIDTH 9 0
BBX 8 8 0 0
BITMAP
3E
11
21
22
3C
44
42
E3
ENDCHAR

STARTCHAR S
ENCODING 83
SWIDTH 531 0
DWIDTH 7 0
BBX 6 8 1 0
BITMAP
1C
24
20
10
10
08
88
F0
ENDCHAR

STARTCHAR T
ENCODING 84
SWIDTH 656 0
DWIDTH 9 0
BBX 8 8 2 0
BITMAP
FF
89
10
10
10
20
20
70
ENDCHAR

STARTCHAR U
ENCODING 85
SWIDTH 729 0
DWIDTH 9 0
BBX 9 8 1 0
BITMAP
7380
2100
4200
4200
4200
8400
8400
7800
ENDCHAR

STARTCHAR V
ENCODING 86
SWIDTH 698 0
DWIDTH 9 0
BBX 9 8 2 0
BITMAP
E380
4100
4200
4400
4800
5000
6000
4000
ENDCHAR

STARTCHAR W
ENCODING 87
SWIDTH 958 0
DWIDTH 12 0
BBX 12 8 2 0
BITMAP
EF70
4420
4440
4C80
5500
5500
6600
4400
ENDCHAR

STARTCHAR X
ENCODING 88
SWIDTH 688 0
DWIDTH 9 0
BBX 9 8 0 0
BITMAP
3B80
1100
0A00
0C00
1C00
2400
4200
E700
ENDCHAR

STARTCHAR Y
ENCODING 89
SWIDTH 625 0
DWIDTH 8 0
BBX 7 8 2 0
BITMAP
E6
44
48
50
60
40
40
E0
ENDCHAR

STARTCHAR Z
ENCODING 90
SWIDTH 688 0
DWIDTH 9 0
BBX 8 8 1 0
BITMAP
1F
22
04
08
10
20
42
FC
ENDCHAR

STARTCHAR bracketleft
ENCODING 91
SWIDTH 302 0
DWIDTH 4 0
BBX 4 11 1 -3
BITMAP
30
20
20
40
40
40
40
80
80
80
C0
ENDCHAR

STARTCHAR backslash
ENCODING 92
SWIDTH 219 0
DWIDTH 3 0
BBX 3 9 1 -1
BITMAP
80
80
80
40
40
40
20
20
20
ENDCHAR

STARTCHAR bracketright
ENCODING 93
SWIDTH 302 0
DWIDTH 4 0
BBX 4 11 0 -3
BITMAP
30
10
10
20
20
20
20
40
40
40
C0
ENDCHAR

STARTCHAR asciicircum
ENCODING 94
SWIDTH 427 0
DWIDTH 6 0
BBX 5 4 1 4
BITMAP
20
50
50
88
ENDCHAR

STARTCHAR underscore
ENCODING 95
SWIDTH 500 0
DWIDTH 7 0
BBX 7 1 0 -2
BITMAP
FE
ENDCHAR

STARTCHAR quoteleft
ENCODING 96
SWIDTH 292 0
DWIDTH 4 0
BBX 1 3 3 5
BITMAP
80
80
80
ENDCHAR

STARTCHAR a
ENCODING 97
SWIDTH 406 0
DWIDTH 5 0
BBX 4 5 0 0
BITMAP
30
50
A0
A0
F0
ENDCHAR

STARTCHAR b
ENCODING 98
SWIDTH 406 0
DWIDTH 5 0
BBX 4 8 0 0
BITMAP
60
20
40
70
50
90
A0
C0
ENDCHAR

STARTCHAR c
ENCODING 99
SWIDTH 271 0
DWIDTH 4 0
BBX 4 5 0 0
BITMAP
30
50
80
80
60
ENDCHAR

STARTCHAR d
ENCODING 100
SWIDTH 438 0
DWIDTH 6 0
BBX 6 8 0 0
BITMAP
0C
04
08
38
48
90
B4
D8
ENDCHAR

STARTCHAR e
ENCODING 101
SWIDTH 344 0
DWIDTH 4 0
BBX 4 5 0 0
BITMAP
30
50
E0
80
60
ENDCHAR

STARTCHAR f
ENCODING 102
SWIDTH 229 0
DWIDTH 3 0
BBX 7 11 -3 -3
BITMAP
06
08
08
1C
08
10
10
10
20
20
C0
ENDCHAR

STARTCHAR g
ENCODING 103
SWIDTH 375 0
DWIDTH 5 0
BBX 6 8 -1 -3
BITMAP
1C
28
28
30
20
70
88
70
ENDCHAR

STARTCHAR h
ENCODING 104
SWIDTH 458 0
DWIDTH 6 0
BBX 5 8 0 0
BITMAP
60
20
40
58
68
48
90
98
ENDCHAR

STARTCHAR i
ENCODING 105
SWIDTH 240 0
DWIDTH 3 0
BBX 3 8 0 0
BITMAP
20
00
00
C0
40
80
80
C0
ENDCHAR

STARTCHAR j
ENCODING 106
SWIDTH 240 0
DWIDTH 3 0
BBX 6 11 -3 -3
BITMAP
04
00
00
18
08
10
10
10
20
20
C0
ENDCHAR

STARTCHAR k
ENCODING 107
SWIDTH 458 0
DWIDTH 6 0
BBX 6 8 0 0
BITMAP
60
20
40
58
68
F0
A4
98
ENDCHAR

STARTCHAR l
ENCODING 108
SWIDTH 229 0
DWIDTH 3 0
BBX 3 8 0 0
BITMAP
60
20
40
40
40
80
80
C0
ENDCHAR

STARTCHAR m
ENCODING 109
SWIDTH 677 0
DWIDTH 9 0
BBX 8 5 0 0
BITMAP
DB
6D
49
92
93
ENDCHAR

STARTCHAR n
ENCODING 110
SWIDTH 469 0
DWIDTH 6 0
BBX 5 5 0 0
BITMAP
D8
68
48
90
98
ENDCHAR

STARTCHAR o
ENCODING 111
SWIDTH 396 0
DWIDTH 5 0
BBX 4 5 0 0
BITMAP
30
50
90
A0
C0
ENDCHAR

STARTCHAR p
ENCODING 112
SWIDTH 438 0
DWIDTH 6 0
BBX 7 8 -2 -3
BITMAP
36
1A
22
24
38
40
40
E0
ENDCHAR

STARTCHAR q
ENCODING 113
SWIDTH 417 0
DWIDTH 5 0
BBX 5 8 0 -3
BITMAP
38
48
90
B0
D0
20
20
70
ENDCHAR

STARTCHAR r
ENCODING 114
SWIDTH 271 0
DWIDTH 4 0
BBX 4 5 0 0
BITMAP
D0
60
40
80
80
ENDCHAR

STARTCHAR s
ENCODING 115
SWIDTH 302 0
DWIDTH 4 0
BBX 3 5 0 0
BITMAP
20
40
20
A0
40
ENDCHAR

STARTCHAR t
ENCODING 116
SWIDTH 260 0
DWIDTH 3 0
BBX 3 6 0 0
BITMAP
40
E0
40
80
80
C0
ENDCHAR

STARTCHAR u
ENCODING 117
SWIDTH 469 0
DWIDTH 6 0
BBX 5 5 0 0
BITMAP
C8
48
90
B0
D8
ENDCHAR

STARTCHAR v
ENCODING 118
SWIDTH 406 0
DWIDTH 5 0
BBX 5 5 0 0
BITMAP
D8
48
48
50
60
ENDCHAR

STARTCHAR w
ENCODING 119
SWIDTH 604 0
DWIDTH 8 0
BBX 8 5 0 0
BITMAP
C9
49
49
5A
6C
ENDCHAR

STARTCHAR x
ENCODING 120
SWIDTH 490 0
DWIDTH 6 0
BBX 6 5 -1 0
BITMAP
24
58
10
34
C8
ENDCHAR

STARTCHAR y
ENCODING 121
SWIDTH 438 0
DWIDTH 6 0
BBX 5 8 0 -3
BITMAP
C8
48
50
50
20
20
40
E0
ENDCHAR

STARTCHAR z
ENCODING 122
SWIDTH 500 0
DWIDTH 7 0
BBX 5 5 1 0
BITMAP
78
90
20
48
F0
ENDCHAR

STARTCHAR braceleft
ENCODING 123
SWIDTH 396 0
DWIDTH 5 0
BBX 3 11 1 -3
BITMAP
20
40
40
40
40
80
40
40
40
40
20
ENDCHAR

STARTCHAR bar
ENCODING 124
SWIDTH 510 0
DWIDTH 7 0
BBX 1 11 3 -3
BITMAP
80
80
80
80
80
80
80
80
80
80
80
ENDCHAR

STARTCHAR braceright
ENCODING 125
SWIDTH 396 0
DWIDTH 5 0
BBX 3 11 1 -3
BITMAP
80
40
40
40
40
20
40
40
40
40
80
ENDCHAR

STARTCHAR asciitilde
ENCODING 126
SWIDTH 542 0
DWIDTH 7 0
BBX 7 2 0 3
BITMAP
72
9C
ENDCHAR

STARTCHAR space
ENCODING 160
SWIDTH 278 0
DWIDTH 4 0
BBX 0 0 0 0
BITMAP
ENDCHAR

STARTCHAR exclamdown
ENCODING 161
SWIDTH 292 0
DWIDTH 4 0
BBX 3 8 0 -2
BITMAP
20
00
40
40
40
80
80
80
ENDCHAR

STARTCHAR cent
ENCODING 162
SWIDTH 271 0
DWIDTH 4 0
BBX 4 9 0 -2
BITMAP
20
20
30
50
80
80
60
40
40
ENDCHAR

STARTCHAR sterling
ENCODING 163
SWIDTH 729 0
DWIDTH 9 0
BBX 9 11 0 -3
BITMAP
0300
0480
0800
0800
1000
1000
7800
2000
2100
5100
8E00
ENDCHAR

STARTCHAR currency
ENCODING 164
SWIDTH 667 0
DWIDTH 9 0
BBX 6 6 2 1
BITMAP
B4
48
84
84
48
B4
ENDCHAR

STARTCHAR yen
ENCODING 165
SWIDTH 500 0
DWIDTH 8 0
BBX 8 8 0 0
BITMAP
73
22
24
FE
30
FC
20
70
ENDCHAR

STARTCHAR brokenbar
ENCODING 166
SWIDTH 510 0
DWIDTH 7 0
BBX 1 11 3 -3
BITMAP
80
80
80
80
80
00
80
80
80
80
80
ENDCHAR

STARTCHAR section
ENCODING 167
SWIDTH 479 0
DWIDTH 6 0
BBX 7 12 -1 -3
BITMAP
0E
10
30
50
48
48
24
24
14
18
10
E0
ENDCHAR

STARTCHAR dieresis
ENCODING 168
SWIDTH 333 0
DWIDTH 4 0
BBX 3 1 2 6
BITMAP
A0
ENDCHAR

STARTCHAR copyright
ENCODING 169
SWIDTH 760 0
DWIDTH 10 0
BBX 9 9 1 0
BITMAP
3E00
4100
9E80
A280
A080
A280
9E80
4100
3E00
ENDCHAR

STARTCHAR ordfeminine
ENCODING 170
SWIDTH 260 0
DWIDTH 3 0
BBX 3 4 1 4
BITMAP
60
A0
A0
E0
ENDCHAR

STARTCHAR guillemotleft
ENCODING 171
SWIDTH 438 0
DWIDTH 6 0
BBX 6 5 0 0
BITMAP
24
48
90
90
48
ENDCHAR

STARTCHAR logicalnot
ENCODING 172
SWIDTH 667 0
DWIDTH 9 0
BBX 7 4 1 1
BITMAP
FE
02
02
02
ENDCHAR

STARTCHAR hyphen
ENCODING 173
SWIDTH 333 0
DWIDTH 4 0
BBX 4 1 1 2
BITMAP
F0
ENDCHAR

STARTCHAR registered
ENCODING 174
SWIDTH 760 0
DWIDTH 10 0
BBX 9 9 1 0
BITMAP
3E00
4100
BC80
9280
9C80
9480
B280
4100
3E00
ENDCHAR

STARTCHAR macron
ENCODING 175
SWIDTH 333 0
DWIDTH 4 0
BBX 4 1 1 7
BITMAP
F0
ENDCHAR

STARTCHAR degree
ENCODING 176
SWIDTH 396 0
DWIDTH 5 0
BBX 4 4 2 4
BITMAP
60
90
90
60
ENDCHAR

STARTCHAR plusminus
ENCODING 177
SWIDTH 667 0
DWIDTH 9 0
BBX 7 9 1 0
BITMAP
10
10
10
FE
10
10
10
00
FE
ENDCHAR

STARTCHAR twosuperior
ENCODING 178
SWIDTH 313 0
DWIDTH 4 0
BBX 4 5 1 3
BITMAP
60
10
20
40
E0
ENDCHAR

STARTCHAR threesuperior
ENCODING 179
SWIDTH 313 0
DWIDTH 4 0
BBX 3 5 1 3
BITMAP
60
20
40
20
C0
ENDCHAR

STARTCHAR acute
ENCODING 180
SWIDTH 333 0
DWIDTH 4 0
BBX 2 3 2 5
BITMAP
40
80
80
ENDCHAR

STARTCHAR mu
ENCODING 181
SWIDTH 500 0
DWIDTH 7 0
BBX 7 8 0 -3
BITMAP
24
24
28
4A
74
40
80
80
ENDCHAR

STARTCHAR paragraph
ENCODING 182
SWIDTH 448 0
DWIDTH 6 0
BBX 6 11 0 -3
BITMAP
7C
E8
E8
E8
E8
68
28
28
28
28
28
ENDCHAR

STARTCHAR periodcentered
ENCODING 183
SWIDTH 292 0
DWIDTH 4 0
BBX 1 1 2 3
BITMAP
80
ENDCHAR

STARTCHAR cedilla
ENCODING 184
SWIDTH 333 0
DWIDTH 4 0
BBX 3 3 0 -3
BITMAP
40
20
C0
ENDCHAR

STARTCHAR onesuperior
ENCODING 185
SWIDTH 313 0
DWIDTH 4 0
BBX 3 5 1 3
BITMAP
60
20
40
40
E0
ENDCHAR

STARTCHAR ordmasculine
ENCODING 186
SWIDTH 260 0
DWIDTH 3 0
BBX 4 5 1 3
BITMAP
30
50
90
A0
C0
ENDCHAR

STARTCHAR guillemotright
ENCODING 187
SWIDTH 438 0
DWIDTH 6 0
BBX 6 5 0 0
BITMAP
48
24
24
48
90
ENDCHAR

STARTCHAR onequarter
ENCODING 188
SWIDTH 823 0
DWIDTH 11 0
BBX 9 9 1 0
BITMAP
6080
2100
4200
4400
E900
1300
2500
4F80
8200
ENDCHAR

STARTCHAR onehalf
ENCODING 189
SWIDTH 823 0
DWIDTH 11 0
BBX 9 9 1 0
BITMAP
6080
2100
4200
4400
EB00
1080
2100
4200
8700
ENDCHAR

STARTCHAR threequarters
ENCODING 190
SWIDTH 823 0
DWIDTH 11 0
BBX 9 9 1 0
BITMAP
6080
2100
4200
2400
C900
1300
2500
4F80
8200
ENDCHAR

STARTCHAR questiondown
ENCODING 191
SWIDTH 396 0
DWIDTH 5 0
BBX 4 8 0 -3
BITMAP
10
00
20
20
40
80
80
60
ENDCHAR

STARTCHAR Agrave
ENCODING 192
SWIDTH 698 0
DWIDTH 9 0
BBX 9 11 0 0
BITMAP
0200
0100
0000
0100
0300
0500
0900
1F00
2100
4100
E380
ENDCHAR

STARTCHAR Aacute
ENCODING 193
SWIDTH 698 0
DWIDTH 9 0
BBX 9 11 0 0
BITMAP
0080
0100
0000
0100
0300
0500
0900
1F00
2100
4100
E380
ENDCHAR

STARTCHAR Acircumflex
ENCODING 194
SWIDTH 698 0
DWIDTH 9 0
BBX 9 11 0 0
BITMAP
0180
0280
0000
0100
0300
0500
0900
1F00
2100
4100
E380
ENDCHAR

STARTCHAR Atilde
ENCODING 195
SWIDTH 698 0
DWIDTH 9 0
BBX 10 11 0 0
BITMAP
0140
0280
0000
0100
0300
0500
0900
1F00
2100
4100
E380
ENDCHAR

STARTCHAR Adieresis
ENCODING 196
SWIDTH 698 0
DWIDTH 9 0
BBX 9 10 0 0
BITMAP
0280
0000
0100
0300
0500
0900
1F00
2100
4100
E380
ENDCHAR

STARTCHAR Aring
ENCODING 197
SWIDTH 698 0
DWIDTH 9 0
BBX 9 12 0 0
BITMAP
0100
0280
0100
0000
0100
0300
0500
0900
1F00
2100
4100
E380
ENDCHAR

STARTCHAR AE
ENCODING 198
SWIDTH 948 0
DWIDTH 12 0
BBX 12 8 0 0
BITMAP
03F0
0290
0540
09C0
1F40
2200
4210
E7F0
ENDCHAR

STARTCHAR Ccedilla
ENCODING 199
SWIDTH 729 0
DWIDTH 9 0
BBX 8 11 1 -3
BITMAP
1F
21
40
80
80
80
42
3E
10
08
30
ENDCHAR

STARTCHAR Egrave
ENCODING 200
SWIDTH 625 0
DWIDTH 8 0
BBX 8 11 0 0
BITMAP
08
04
00
3F
11
24
3C
24
40
42
FE
ENDCHAR

STARTCHAR Eacute
ENCODING 201
SWIDTH 625 0
DWIDTH 8 0
BBX 8 11 0 0
BITMAP
02
04
00
3F
11
24
3C
24
40
42
FE
ENDCHAR

STARTCHAR Ecircumflex
ENCODING 202
SWIDTH 625 0
DWIDTH 8 0
BBX 8 11 0 0
BITMAP
06
0A
00
3F
11
24
3C
24
40
42
FE
ENDCHAR

STARTCHAR Edieresis
ENCODING 203
SWIDTH 625 0
DWIDTH 8 0
BBX 8 10 0 0
BITMAP
0A
00
3F
11
24
3C
24
40
42
FE
ENDCHAR

STARTCHAR Igrave
ENCODING 204
SWIDTH 323 0
DWIDTH 4 0
BBX 5 11 0 0
BITMAP
20
10
00
38
10
20
20
20
40
40
E0
ENDCHAR

STARTCHAR Iacute
ENCODING 205
SWIDTH 323 0
DWIDTH 4 0
BBX 5 11 0 0
BITMAP
08
10
00
38
10
20
20
20
40
40
E0
ENDCHAR

STARTCHAR Icircumflex
ENCODING 206
SWIDTH 323 0
DWIDTH 4 0
BBX 5 11 0 0
BITMAP
18
28
00
38
10
20
20
20
40
40
E0
ENDCHAR

STARTCHAR Idieresis
ENCODING 207
SWIDTH 323 0
DWIDTH 4 0
BBX 5 10 0 0
BITMAP
28
00
38
10
20
20
20
40
40
E0
ENDCHAR

STARTCHAR Eth
ENCODING 208
SWIDTH 760 0
DWIDTH 10 0
BBX 10 8 0 0
BITMAP
3F00
1080
2040
2040
F840
4080
4100
FE00
ENDCHAR

STARTCHAR Ntilde
ENCODING 209
SWIDTH 771 0
DWIDTH 10 0
BBX 11 11 0 0
BITMAP
0280
0500
0000
30E0
1040
2880
2480
2480
4300
4100
E100
ENDCHAR

STARTCHAR Ograve
ENCODING 210
SWIDTH 792 0
DWIDTH 10 0
BBX 9 11 1 0
BITMAP
0800
0400
0000
1E00
2100
4080
8080
8080
8100
4200
3C00
ENDCHAR

STARTCHAR Oacute
ENCODING 211
SWIDTH 792 0
DWIDTH 10 0
BBX 9 11 1 0
BITMAP
0200
0400
0000
1E00
2100
4080
8080
8080
8100
4200
3C00
ENDCHAR

STARTCHAR Ocircumflex
ENCODING 212
SWIDTH 792 0
DWIDTH 10 0
BBX 9 11 1 0
BITMAP
0600
0A00
0000
1E00
2100
4080
8080
8080
8100
4200
3C00
ENDCHAR

STARTCHAR Otilde
ENCODING 213
SWIDTH 792 0
DWIDTH 10 0
BBX 9 11 1 0
BITMAP
0500
0A00
0000
1E00
2100
4080
8080
8080
8100
4200
3C00
ENDCHAR

STARTCHAR Odieresis
ENCODING 214
SWIDTH 792 0
DWIDTH 10 0
BBX 9 10 1 0
BITMAP
0A00
0000
1E00
2100
4080
8080
8080
8100
4200
3C00
ENDCHAR

STARTCHAR multiply
ENCODING 215
SWIDTH 667 0
DWIDTH 9 0
BBX 6 6 2 1
BITMAP
84
48
30
30
48
84
ENDCHAR

STARTCHAR Oslash
ENCODING 216
SWIDTH 792 0
DWIDTH 10 0
BBX 9 10 1 -1
BITMAP
0100
1E00
2300
4480
8880
8880
9100
6200
3C00
4000
ENDCHAR

STARTCHAR Ugrave
ENCODING 217
SWIDTH 729 0
DWIDTH 9 0
BBX 9 11 1 0
BITMAP
0800
0400
0000
7380
2100
4200
4200
4200
8400
8400
7800
ENDCHAR

STARTCHAR Uacute
ENCODING 218
SWIDTH 729 0
DWIDTH 9 0
BBX 9 11 1 0
BITMAP
0200
0400
0000
7380
2100
4200
4200
4200
8400
8400
7800
ENDCHAR

STARTCHAR Ucircumflex
ENCODING 219
SWIDTH 729 0
DWIDTH 9 0
BBX 9 11 1 0
BITMAP
0600
0A00
0000
7380
2100
4200
4200
4200
8400
8400
7800
ENDCHAR

STARTCHAR Udieresis
ENCODING 220
SWIDTH 729 0
DWIDTH 9 0
BBX 9 10 1 0
BITMAP
0A00
0000
7380
2100
4200
4200
4200
8400
8400
7800
ENDCHAR

STARTCHAR Yacute
ENCODING 221
SWIDTH 625 0
DWIDTH 8 0
BBX 7 11 2 0
BITMAP
04
08
00
E6
44
48
50
60
40
40
E0
ENDCHAR

STARTCHAR Thorn
ENCODING 222
SWIDTH 563 0
DWIDTH 7 0
BBX 7 8 0 0
BITMAP
38
10
3C
22
22
4C
40
E0
ENDCHAR

STARTCHAR germandbls
ENCODING 223
SWIDTH 438 0
DWIDTH 6 0
BBX 9 11 -3 -3
BITMAP
0300
0480
0480
0500
0880
0880
0900
1600
1000
2000
C000
ENDCHAR

STARTCHAR agrave
ENCODING 224
SWIDTH 406 0
DWIDTH 5 0
BBX 4 8 0 0
BITMAP
20
10
00
30
50
A0
A0
F0
ENDCHAR

STARTCHAR aacute
ENCODING 225
SWIDTH 406 0
DWIDTH 5 0
BBX 5 8 0 0
BITMAP
08
10
00
30
50
A0
A0
F0
ENDCHAR

STARTCHAR acircumflex
ENCODING 226
SWIDTH 406 0
DWIDTH 5 0
BBX 5 8 0 0
BITMAP
18
28
00
30
50
A0
A0
F0
ENDCHAR

STARTCHAR atilde
ENCODING 227
SWIDTH 406 0
DWIDTH 5 0
BBX 5 8 0 0
BITMAP
28
50
00
30
50
A0
A0
F0
ENDCHAR

STARTCHAR adieresis
ENCODING 228
SWIDTH 406 0
DWIDTH 5 0
BBX 5 7 0 0
BITMAP
28
00
30
50
A0
A0
F0
ENDCHAR

STARTCHAR aring
ENCODING 229
SWIDTH 406 0
DWIDTH 5 0
BBX 5 9 0 0
BITMAP
10
28
10
00
30
50
A0
A0
F0
ENDCHAR

STARTCHAR ae
ENCODING 230
SWIDTH 573 0
DWIDTH 7 0
BBX 6 5 1 0
BITMAP
3C
54
98
B0
DC
ENDCHAR

STARTCHAR ccedilla
ENCODING 231
SWIDTH 271 0
DWIDTH 4 0
BBX 4 9 0 -2
BITMAP
20
20
30
50
80
80
60
40
40
ENDCHAR

STARTCHAR egrave
ENCODING 232
SWIDTH 344 0
DWIDTH 4 0
BBX 4 8 0 0
BITMAP
20
10
00
30
50
E0
80
60
ENDCHAR

STARTCHAR eacute
ENCODING 233
SWIDTH 344 0
DWIDTH 4 0
BBX 5 8 0 0
BITMAP
08
10
00
30
50
E0
80
60
ENDCHAR

STARTCHAR ecircumflex
ENCODING 234
SWIDTH 344 0
DWIDTH 4 0
BBX 5 8 0 0
BITMAP
18
28
00
30
50
E0
80
60
ENDCHAR

STARTCHAR edieresis
ENCODING 235
SWIDTH 344 0
DWIDTH 4 0
BBX 5 7 0 0
BITMAP
28
00
30
50
E0
80
60
ENDCHAR

STARTCHAR igrave
ENCODING 236
SWIDTH 240 0
DWIDTH 3 0
BBX 2 8 0 0
BITMAP
80
40
00
C0
40
80
80
C0
ENDCHAR

STARTCHAR iacute
ENCODING 237
SWIDTH 240 0
DWIDTH 3 0
BBX 3 8 0 0
BITMAP
20
40
00
C0
40
80
80
C0
ENDCHAR

STARTCHAR icircumflex
ENCODING 238
SWIDTH 240 0
DWIDTH 3 0
BBX 3 8 0 0
BITMAP
60
A0
00
C0
40
80
80
C0
ENDCHAR

STARTCHAR idieresis
ENCODING 239
SWIDTH 240 0
DWIDTH 3 0
BBX 3 7 0 0
BITMAP
A0
00
C0
40
80
80
C0
ENDCHAR

STARTCHAR eth
ENCODING 240
SWIDTH 417 0
DWIDTH 5 0
BBX 4 9 0 0
BITMAP
50
20
50
10
30
50
90
A0
C0
ENDCHAR

STARTCHAR ntilde
ENCODING 241
SWIDTH 469 0
DWIDTH 6 0
BBX 5 8 0 0
BITMAP
28
50
00
D8
68
48
90
98
ENDCHAR

STARTCHAR ograve
ENCODING 242
SWIDTH 396 0
DWIDTH 5 0
BBX 4 8 0 0
BITMAP
20
10
00
30
50
90
A0
C0
ENDCHAR

STARTCHAR oacute
ENCODING 243
SWIDTH 396 0
DWIDTH 5 0
BBX 5 8 0 0
BITMAP
08
10
00
30
50
90
A0
C0
ENDCHAR

STARTCHAR ocircumflex
ENCODING 244
SWIDTH 396 0
DWIDTH 5 0
BBX 5 8 0 0
BITMAP
18
28
00
30
50
90
A0
C0
ENDCHAR

STARTCHAR otilde
ENCODING 245
SWIDTH 396 0
DWIDTH 5 0
BBX 5 8 0 0
BITMAP
28
50
00
30
50
90
A0
C0
ENDCHAR

STARTCHAR odieresis
ENCODING 246
SWIDTH 396 0
DWIDTH 5 0
BBX 5 7 0 0
BITMAP
28
00
30
50
90
A0
C0
ENDCHAR

STARTCHAR divide
ENCODING 247
SWIDTH 667 0
DWIDTH 9 0
BBX 7 7 2 1
BITMAP
10
00
00
FE
00
00
10
ENDCHAR

STARTCHAR oslash
ENCODING 248
SWIDTH 396 0
DWIDTH 5 0
BBX 4 7 0 -1
BITMAP
10
30
50
90
A0
C0
80
ENDCHAR

STARTCHAR ugrave
ENCODING 249
SWIDTH 469 0
DWIDTH 6 0
BBX 5 8 0 0
BITMAP
20
10
00
C8
48
90
B0
D8
ENDCHAR

STARTCHAR uacute
ENCODING 250
SWIDTH 469 0
DWIDTH 6 0
BBX 5 8 0 0
BITMAP
08
10
00
C8
48
90
B0
D8
ENDCHAR

STARTCHAR ucircumflex
ENCODING 251
SWIDTH 469 0
DWIDTH 6 0
BBX 5 8 0 0
BITMAP
18
28
00
C8
48
90
B0
D8
ENDCHAR

STARTCHAR udieresis
ENCODING 252
SWIDTH 469 0
DWIDTH 6 0
BBX 5 7 0 0
BITMAP
28
00
C8
48
90
B0
D8
ENDCHAR

STARTCHAR yacute
ENCODING 253
SWIDTH 438 0
DWIDTH 6 0
BBX 5 11 0 -3
BITMAP
08
10
00
C8
48
50
50
20
40
40
80
ENDCHAR

STARTCHAR thorn
ENCODING 254
SWIDTH 438 0
DWIDTH 6 0
BBX 7 11 -1 -3
BITMAP
18
08
10
16
1A
22
24
38
40
40
E0
ENDCHAR

STARTCHAR ydieresis
ENCODING 255
SWIDTH 438 0
DWIDTH 6 0
BBX 5 10 0 -3
BITMAP
28
00
C8
48
50
50
20
40
40
80
ENDCHAR
ENDFONT
